<svg viewBox="0 0 257 258" fill="#333" xmlns="http://www.w3.org/2000/svg">
<path fill-rule="evenodd" clip-rule="evenodd" d="M115.59 1.42981C90.8498 4.05303 67.4065 13.8138 48.1151 29.5233C28.8237 45.2328 14.5167 66.2131 6.9367 89.9089C-0.64331 113.605 -1.16917 138.993 5.42301 162.983C12.0152 186.972 25.4411 208.527 44.0654 225.022C44.8709 225.677 45.7976 226.168 46.7926 226.465C47.7877 226.762 48.8316 226.861 49.8646 226.754C50.8977 226.648 51.8997 226.34 52.8135 225.846C53.7273 225.353 54.5351 224.684 55.1906 223.879C55.846 223.073 56.3363 222.147 56.6336 221.152C56.9309 220.157 57.0294 219.113 56.9232 218.08C56.8171 217.047 56.5084 216.045 56.015 215.131C55.5216 214.217 54.8532 213.409 54.0477 212.754C39.8964 200.156 29.163 184.183 22.8469 166.321C16.5308 148.459 14.8375 129.289 17.9245 110.596C21.0116 91.903 28.7787 74.2954 40.5025 59.4124C52.2263 44.5294 67.5255 32.8552 84.9757 25.4768C102.426 18.0983 121.459 15.2556 140.304 17.2134C159.149 19.1711 177.191 25.8657 192.752 36.6736C208.313 47.4816 220.886 62.0514 229.3 79.0265C237.714 96.0016 241.696 114.83 240.875 133.758C239.678 155.835 232.092 177.088 219.041 194.934C205.99 212.78 188.035 226.45 167.36 234.281C147.336 242.13 125.404 243.724 104.457 238.852L181.773 92.8802C183.084 90.6088 183.823 88.0528 183.927 85.4323C183.966 84.35 183.785 83.271 183.395 82.2607C183.005 81.2504 182.413 80.3298 181.657 79.5548C180.769 78.7488 179.727 78.1303 178.594 77.7362C177.461 77.3422 176.261 77.1807 175.064 77.2614H77.7752C75.3812 77.0969 73.0177 77.8754 71.1902 79.4304C70.3973 80.2507 69.785 81.2279 69.3927 82.299C69.0004 83.3702 68.8368 84.5117 68.9123 85.65C68.8476 86.7556 69.017 87.8624 69.4096 88.898C69.8021 89.9336 70.4089 90.8746 71.1902 91.6596C73.0206 93.2089 75.3827 93.9842 77.7752 93.8209H160.409L86.1015 233.061C79.7187 244.17 83.4971 249.737 97.2345 253.445C115.393 258.018 134.332 258.56 152.723 255.032C171.113 251.505 188.508 243.995 203.686 233.028C218.864 222.062 231.457 207.905 240.581 191.553C249.705 175.201 255.138 157.049 256.499 138.373C257.859 119.697 255.115 100.95 248.458 83.4478C241.801 65.9457 231.393 50.1131 217.965 37.0622C204.537 24.0113 188.414 14.0585 170.73 7.90272C153.045 1.74698 134.227 -0.462379 115.598 1.42981H115.59Z" fill="#333"/>
</svg>
