<svg xmlns="http://www.w3.org/2000/svg" width="183" height="33.031" viewBox="0 0 183 33.031">
  <metadata><?xpacket begin="﻿" id="W5M0MpCehiHzreSzNTczkc9d"?>
<x:xmpmeta xmlns:x="adobe:ns:meta/" x:xmptk="Adobe XMP Core 5.6-c140 79.160451, 2017/05/06-01:08:21        ">
   <rdf:RDF xmlns:rdf="http://www.w3.org/1999/02/22-rdf-syntax-ns#">
      <rdf:Description rdf:about=""/>
   </rdf:RDF>
</x:xmpmeta>
                                                                                                    
                                                                                                    
                                                                                                    
                                                                                                    
                                                                                                    
                                                                                                    
                                                                                                    
                                                                                                    
                                                                                                    
                                                                                                    
                                                                                                    
                                                                                                    
                                                                                                    
                                                                                                    
                                                                                                    
                                                                                                    
                                                                                                    
                                                                                                    
                                                                                                    
                                                                                                    
                           
<?xpacket end="w"?></metadata>
<defs>
    <style>
      .cls-1 {
        fill: #fff;
        fill-rule: evenodd;
      }
    </style>
  </defs>
  <path id="Logo" class="cls-1" d="M210.032,26.859a8.94,8.94,0,0,1,3.24.537,11.85,11.85,0,0,1,3.082,1.924,1.249,1.249,0,0,0,.724.316,0.587,0.587,0,0,0,.456-0.252,0.93,0.93,0,0,0,.205-0.6,1.238,1.238,0,0,0-.441-0.915,8.837,8.837,0,0,0-3.225-2.034,11.388,11.388,0,0,0-4.008-.71A10.216,10.216,0,0,0,204.7,26.5a8.9,8.9,0,0,0-3.489,3.928A14.013,14.013,0,0,0,200,36.48a14.121,14.121,0,0,0,1.213,6.074A8.887,8.887,0,0,0,204.7,46.5a10.22,10.22,0,0,0,5.365,1.371,11.387,11.387,0,0,0,4.008-.709,8.823,8.823,0,0,0,3.225-2.036,1.232,1.232,0,0,0,.441-0.913,0.939,0.939,0,0,0-.205-0.6,0.59,0.59,0,0,0-.456-0.251,1.506,1.506,0,0,0-.724.316,11.864,11.864,0,0,1-3.082,1.925,8.965,8.965,0,0,1-3.24.534,7.229,7.229,0,0,1-5.9-2.524q-2.092-2.522-2.091-7.129,0-4.571,2.091-7.1A7.233,7.233,0,0,1,210.032,26.859Zm21.2,6.057a7.439,7.439,0,0,0-7.374,0,6.546,6.546,0,0,0-2.47,2.775,9.448,9.448,0,0,0-.881,4.194,9.45,9.45,0,0,0,.881,4.2,6.545,6.545,0,0,0,2.47,2.776,7.437,7.437,0,0,0,7.374,0,6.417,6.417,0,0,0,2.47-2.776,9.589,9.589,0,0,0,.865-4.2,9.587,9.587,0,0,0-.865-4.194A6.418,6.418,0,0,0,231.23,32.917Zm0.033,11.609a4.567,4.567,0,0,1-3.744,1.607,4.476,4.476,0,0,1-3.712-1.607,7.266,7.266,0,0,1-1.287-4.639,7.232,7.232,0,0,1,1.321-4.62,4.966,4.966,0,0,1,7.4,0,7.157,7.157,0,0,1,1.339,4.62A7.142,7.142,0,0,1,231.263,44.525ZM255.1,31.939a5.984,5.984,0,0,0-3.115.8,4.983,4.983,0,0,0-2.012,2.226q-1.071-3.031-4.686-3.029a5.486,5.486,0,0,0-2.877.742,4.783,4.783,0,0,0-1.905,2.159V32.947a0.964,0.964,0,0,0-.235-0.693A0.872,0.872,0,0,0,239.6,32a0.988,0.988,0,0,0-.709.254,0.952,0.952,0,0,0-.266.724V46.8a0.917,0.917,0,0,0,.975.975,0.9,0.9,0,0,0,.691-0.267,0.991,0.991,0,0,0,.254-0.708V38.752a5.457,5.457,0,0,1,1.21-3.723,4.105,4.105,0,0,1,3.256-1.389,3.14,3.14,0,0,1,2.608,1.027,5.356,5.356,0,0,1,.819,3.327v8.8a0.918,0.918,0,0,0,.976.975,0.911,0.911,0,0,0,.691-0.267,0.989,0.989,0,0,0,.25-0.708V38.752a5.459,5.459,0,0,1,1.214-3.723,4.1,4.1,0,0,1,3.253-1.389,3.145,3.145,0,0,1,2.611,1.027,5.356,5.356,0,0,1,.819,3.327v8.8a0.917,0.917,0,0,0,.975.975,0.91,0.91,0,0,0,.691-0.267,1,1,0,0,0,.251-0.708V37.869Q260.166,31.939,255.1,31.939Zm26.515,0a5.982,5.982,0,0,0-3.115.8,4.978,4.978,0,0,0-2.012,2.226q-1.071-3.031-4.687-3.029a5.491,5.491,0,0,0-2.877.742,4.781,4.781,0,0,0-1.9,2.159V32.947a0.964,0.964,0,0,0-.236-0.693A0.871,0.871,0,0,0,266.112,32a0.986,0.986,0,0,0-.709.254,0.949,0.949,0,0,0-.267.724V46.8a0.918,0.918,0,0,0,.976.975,0.9,0.9,0,0,0,.691-0.267,0.99,0.99,0,0,0,.253-0.708V38.752a5.458,5.458,0,0,1,1.211-3.723,4.1,4.1,0,0,1,3.256-1.389,3.141,3.141,0,0,1,2.608,1.027,5.356,5.356,0,0,1,.819,3.327v8.8a0.917,0.917,0,0,0,.975.975,0.91,0.91,0,0,0,.691-0.267,0.989,0.989,0,0,0,.251-0.708V38.752a5.459,5.459,0,0,1,1.213-3.723,4.1,4.1,0,0,1,3.253-1.389,3.142,3.142,0,0,1,2.611,1.027,5.356,5.356,0,0,1,.819,3.327v8.8a0.917,0.917,0,0,0,.976.975,0.911,0.911,0,0,0,.691-0.267,1,1,0,0,0,.25-0.708V37.869Q286.68,31.939,281.618,31.939Zm22.329,8A1.194,1.194,0,0,0,304.2,39.1a7.574,7.574,0,0,0-1.715-5.252,5.963,5.963,0,0,0-4.671-1.907,6.989,6.989,0,0,0-3.727.993,6.688,6.688,0,0,0-2.516,2.808,9.33,9.33,0,0,0-.9,4.179,8.067,8.067,0,0,0,2.015,5.8,7.234,7.234,0,0,0,5.5,2.113,9.168,9.168,0,0,0,4.781-1.356,1.793,1.793,0,0,0,1.07-1.358,0.821,0.821,0,0,0-.2-0.552,0.631,0.631,0,0,0-.489-0.236,2.228,2.228,0,0,0-.975.473,14.851,14.851,0,0,1-1.95.962,6.166,6.166,0,0,1-2.263.362,5.2,5.2,0,0,1-4-1.512,6.575,6.575,0,0,1-1.511-4.418h10.474A1.077,1.077,0,0,0,303.947,39.935Zm-11.229-1.152A6.373,6.373,0,0,1,294.29,34.9a4.638,4.638,0,0,1,3.522-1.389,4.217,4.217,0,0,1,3.366,1.373,5.984,5.984,0,0,1,1.259,3.895h-9.719ZM315.3,32l-0.44.033A5.26,5.26,0,0,0,310.08,35V32.947a0.942,0.942,0,0,0-.251-0.693,0.891,0.891,0,0,0-.66-0.254,0.986,0.986,0,0,0-.709.254,0.949,0.949,0,0,0-.267.724V46.8a0.951,0.951,0,0,0,.267.724,0.984,0.984,0,0,0,.709.252,0.922,0.922,0,0,0,.691-0.252,0.976,0.976,0,0,0,.253-0.724V38.626a5.125,5.125,0,0,1,1.085-3.25,4.553,4.553,0,0,1,3.318-1.607l0.944-.1a0.865,0.865,0,0,0,.942-0.883,0.74,0.74,0,0,0-.251-0.631A1.333,1.333,0,0,0,315.3,32Zm14.183,12.335a0.952,0.952,0,0,0-.425.156c-0.176.108-.361,0.224-0.55,0.349a12.8,12.8,0,0,1-1.746.945,5.007,5.007,0,0,1-2,.346,4.719,4.719,0,0,1-3.822-1.623,6.881,6.881,0,0,1-1.367-4.559,7.13,7.13,0,0,1,1.383-4.652A4.685,4.685,0,0,1,324.8,33.61a5.076,5.076,0,0,1,1.981.346,8.233,8.233,0,0,1,1.636.947,2.111,2.111,0,0,0,1.009.536,0.6,0.6,0,0,0,.471-0.22,0.845,0.845,0,0,0,.189-0.568,1.2,1.2,0,0,0-.236-0.711,3.559,3.559,0,0,0-.8-0.742,6.384,6.384,0,0,0-2.012-.945,8.633,8.633,0,0,0-2.329-.315,6.907,6.907,0,0,0-3.727,1.009,6.794,6.794,0,0,0-2.516,2.824,10.166,10.166,0,0,0-.015,8.313,6.512,6.512,0,0,0,2.485,2.776,6.984,6.984,0,0,0,3.711.978,8.387,8.387,0,0,0,2.406-.362,6.606,6.606,0,0,0,2.061-.994,4.224,4.224,0,0,0,.85-0.727,1.062,1.062,0,0,0,.22-0.662,0.8,0.8,0,0,0-.19-0.537A0.631,0.631,0,0,0,329.484,44.336Zm16.294-4.4a1.194,1.194,0,0,0,.251-0.837,7.574,7.574,0,0,0-1.715-5.252,5.963,5.963,0,0,0-4.671-1.907,6.989,6.989,0,0,0-3.727.993,6.688,6.688,0,0,0-2.516,2.808,9.33,9.33,0,0,0-.9,4.179,8.067,8.067,0,0,0,2.015,5.8,7.234,7.234,0,0,0,5.5,2.113,9.168,9.168,0,0,0,4.781-1.356,1.793,1.793,0,0,0,1.07-1.358,0.821,0.821,0,0,0-.2-0.552,0.631,0.631,0,0,0-.489-0.236,2.228,2.228,0,0,0-.975.473,14.851,14.851,0,0,1-1.95.962,6.166,6.166,0,0,1-2.263.362,5.2,5.2,0,0,1-4-1.512,6.575,6.575,0,0,1-1.511-4.418h10.474A1.077,1.077,0,0,0,345.778,39.935Zm-11.229-1.152a6.373,6.373,0,0,1,1.572-3.879,4.638,4.638,0,0,1,3.522-1.389,4.217,4.217,0,0,1,3.366,1.373,5.989,5.989,0,0,1,1.259,3.895h-9.719Zm30.3-18.707a16.5,16.5,0,0,0-9.2,28.76,1.017,1.017,0,0,0,1.284-1.578l0,0v0a14.442,14.442,0,1,1,24.031-10.161,14.676,14.676,0,0,1-9.456,12.93,13.68,13.68,0,0,1-8.091.588l9.945-18.776a2.081,2.081,0,0,0,.277-0.958,1.029,1.029,0,0,0-.292-0.756,1.147,1.147,0,0,0-.848-0.295H359.984a1.182,1.182,0,0,0-.847.279,1.051,1.051,0,0,0-.293.8,1.012,1.012,0,0,0,.293.773,1.186,1.186,0,0,0,.847.278h10.629L361.055,49.87s1.021-1.943,0,0c-0.821,1.429-.335,2.145,1.432,2.622A16.5,16.5,0,1,0,364.849,20.076Z" transform="translate(-200 -19.969)"/>
</svg>
