<?xml version="1.0" encoding="utf-8"?>
<!-- Generator: Adobe Illustrator 23.0.2, SVG Export Plug-In . SVG Version: 6.00 Build 0)  -->
<svg version="1.1" id="Layer_1" xmlns="http://www.w3.org/2000/svg" xmlns:xlink="http://www.w3.org/1999/xlink" x="0px" y="0px"
	 viewBox="0 0 28 28.1" style="enable-background:new 0 0 28 28.1;" xml:space="preserve">
<style type="text/css">
	.st0{fill-rule:evenodd;clip-rule:evenodd;fill:#FFFFFF;}
</style>
<path class="st0" d="M12.7,0.8c-2.6,0.3-5,1.3-7,2.9S2.2,7.5,1.5,10c-0.8,2.4-0.8,5.1-0.2,7.5c0.7,2.5,2.1,4.7,4,6.4
	C5.4,24,5.5,24,5.6,24.1c0.1,0,0.2,0,0.3,0c0.1,0,0.2,0,0.3-0.1c0.1-0.1,0.2-0.1,0.2-0.2c0.1-0.1,0.1-0.2,0.1-0.3c0-0.1,0-0.2,0-0.3
	c0-0.1,0-0.2-0.1-0.3c-0.1-0.1-0.1-0.2-0.2-0.2c-1.5-1.3-2.6-2.9-3.2-4.8S2.3,14,2.6,12.1c0.3-1.9,1.1-3.7,2.3-5.3s2.8-2.7,4.6-3.5
	c1.8-0.8,3.8-1.1,5.7-0.9c1.9,0.2,3.8,0.9,5.4,2c1.6,1.1,2.9,2.6,3.8,4.4c0.9,1.8,1.3,3.7,1.2,5.6c-0.1,2.3-0.9,4.5-2.3,6.3
	c-1.3,1.8-3.2,3.3-5.3,4.1c-2.1,0.8-4.3,1-6.5,0.5l8-15.1c0.1-0.2,0.2-0.5,0.2-0.8c0-0.1,0-0.2-0.1-0.3c0-0.1-0.1-0.2-0.2-0.3
	c-0.1-0.1-0.2-0.1-0.3-0.2c-0.1,0-0.2-0.1-0.4,0h-10c-0.2,0-0.5,0.1-0.7,0.2C8,9,8,9.1,7.9,9.2c0,0.1-0.1,0.2,0,0.3
	c0,0.1,0,0.2,0.1,0.3C8,10,8,10.1,8.1,10.2c0.2,0.2,0.4,0.2,0.7,0.2h8.5L9.6,24.7c-0.7,1.1-0.3,1.7,1.1,2.1c1.9,0.5,3.8,0.5,5.7,0.2
	c1.9-0.4,3.7-1.1,5.3-2.3c1.6-1.1,2.9-2.6,3.8-4.3s1.5-3.6,1.6-5.5c0.1-1.9-0.1-3.9-0.8-5.7c-0.7-1.8-1.8-3.4-3.1-4.8s-3-2.4-4.9-3
	C16.5,0.9,14.6,0.6,12.7,0.8L12.7,0.8z"/>
</svg>
